<svg xmlns="http://www.w3.org/2000/svg" baseProfile="tiny" version="1.2" viewBox="0 0 512 512"><path fill="#FFF" d="M422.3 477.9c0 7.6-6.2 13.8-13.8 13.8h-305c-7.6 0-13.8-6.2-13.8-13.8V34.1c0-7.6 6.2-13.8 13.8-13.8h230.1V109h88.7v368.9z"/><path fill="#F3BB2F" d="M333.6 6H103.5C88 6 75.4 18.6 75.4 34.1v443.8c0 15.5 12.6 28.1 28.1 28.1h305c15.5 0 28.1-12.6 28.1-28.1V109.1L333.6 6zm88.7 471.9c0 7.6-6.2 13.8-13.8 13.8h-305c-7.6 0-13.8-6.2-13.8-13.8V34.1c0-7.6 6.2-13.8 13.8-13.8h230.1V109h88.7v368.9z"/><path fill="#DEA21E" d="M333.6 6v103.1h103z"/><g><path fill="#DEA21E" d="M465.9 450.8H46.1V308c0-9.8 7.9-17.7 17.7-17.7h384.3c9.8 0 17.7 7.9 17.7 17.7v142.8z"/><path fill="#B87D0F" d="M436.6 450.8v19.5l29.3-19.5zM75.4 450.8v19.5l-29.3-19.5z"/><path fill="#F3BB2F" d="M64.1 308.4h383.7v124.5H64.1z"/></g><g fill="#F3BB2F"><path d="M298.3 78.6h-177a6.7 6.7 0 010-13.4h177a6.7 6.7 0 010 13.4zM298.3 110.6h-177a6.7 6.7 0 010-13.4h177a6.7 6.7 0 010 13.4zM391.8 142.5H121.3a6.7 6.7 0 010-13.4h270.5a6.7 6.7 0 010 13.4zM391.8 174.5H121.3a6.7 6.7 0 010-13.4h270.5a6.7 6.7 0 010 13.4zM391.8 206.5H121.3a6.7 6.7 0 010-13.4h270.5a6.7 6.7 0 010 13.4zM391.8 238.4H121.3a6.7 6.7 0 010-13.4h270.5a6.7 6.7 0 010 13.4zM391.8 270.4H121.3a6.7 6.7 0 010-13.4h270.5a6.7 6.7 0 010 13.4z"/></g><g fill="#FFF"><path d="M242.1 348.4v46.7c0 5.7-1.5 10.2-4.6 13.3-3.1 3.1-7.4 4.7-12.8 4.7-1.2 0-2.4-.1-3.4-.2s-2.1-.3-3.3-.6l.6-10.9c.8.2 1.5.3 2.1.4.6.1 1.3.1 2.2.1 1.6 0 2.8-.6 3.6-1.7.8-1.2 1.3-2.9 1.3-5.2v-46.7h14.3zm-.3-10.7h-14.4v-9.6h14.4v9.6zM280.3 381.6c0-1.1-.6-2.1-1.9-3-1.3-.9-3.6-1.7-7-2.4-5.4-1-9.4-2.7-12.1-4.9-2.7-2.2-4.1-5.2-4.1-9.1 0-4.1 1.7-7.5 5.1-10.3 3.4-2.8 8-4.2 13.8-4.2 6.1 0 11 1.4 14.6 4.1 3.6 2.7 5.4 6.3 5.2 10.6l-.1.3h-14c0-1.8-.5-3.2-1.4-4.1-.9-.9-2.4-1.4-4.5-1.4-1.5 0-2.8.4-3.8 1.2-1 .8-1.5 1.9-1.5 3.1 0 1.2.6 2.3 1.8 3.1 1.2.9 3.6 1.6 7.1 2.3 5.6 1.1 9.8 2.8 12.5 5 2.7 2.2 4 5.3 4 9.3 0 4.1-1.8 7.6-5.5 10.2-3.7 2.7-8.5 4-14.6 4-6.3 0-11.2-1.6-14.9-4.8-3.6-3.2-5.4-6.7-5.2-10.6l.1-.3h13c.1 2.2.7 3.8 2 4.7 1.3 1 3.1 1.4 5.4 1.4 1.9 0 3.4-.4 4.4-1.1 1.1-.7 1.6-1.8 1.6-3.1z"/></g></svg>